<svg xmlns="http://www.w3.org/2000/svg" xmlns:xlink="http://www.w3.org/1999/xlink" xml:space="preserve" version="1.1"
     style="shape-rendering:geometricPrecision;text-rendering:geometricPrecision;image-rendering:optimizeQuality;"
     viewBox="0 0 333 416.25" x="0px" y="0px" fill-rule="evenodd" clip-rule="evenodd"><g><path class="fil0" d="M80 178l100 0c32,0 59,23 59,50l0 63 -218 0 0 -63c0,-27 27,-50 59,-50zm232 -49l0 0c0,6 -5,12 -12,12l-21 0 0 21c0,6 -6,12 -12,12l0 0c-7,0 -12,-6 -12,-12l0 -21 -21 0c-7,0 -12,-6 -12,-12l0 0c0,-7 5,-12 12,-12l21 0 0 -22c0,-6 5,-12 12,-12l0 0c6,0 12,6 12,12l0 22 21 0c7,0 12,5 12,12zm-182 -87c33,0 60,27 60,60 0,33 -27,60 -60,60 -33,0 -60,-27 -60,-60 0,-33 27,-60 60,-60z"/></g>
    <text x="0" y="348" fill="#000000" font-size="0px" font-weight="bold"
          font-family="'Helvetica Neue', Helvetica, Arial-Unicode, Arial, Sans-serif">Created by flamingo</text>
    <text x="0" y="353" fill="#000000" font-size="0px" font-weight="bold"
          font-family="'Helvetica Neue', Helvetica, Arial-Unicode, Arial, Sans-serif">from the Noun Project</text></svg>