<svg xmlns="http://www.w3.org/2000/svg" xmlns:xlink="http://www.w3.org/1999/xlink" version="1.1" x="0px" y="0px"
     viewBox="0 0 30.348 39.55625" style="enable-background:new 0 0 30.348 31.645;" xml:space="preserve"><g><path d="M18.046,3.385C9.945,2.514,5.449,6.76,3.95,8.529c-1.064,1.098-1.899,2.447-2.404,4.002c-0.71,2.199-0.64,4.463,0.055,6.49   c3.905-5.089,10.445-6.04,12.264-6.21c-2.123,1.074-11.461,6.306-13.552,16.183c-0.022,0.081-0.05,0.16-0.069,0.242   c-0.051,0.205-0.099,0.41-0.142,0.622c-0.025,0.12-0.052,0.239-0.063,0.362c-0.049,0.232-0.121,0.83,0.273,0.986l1.335,0.416   c0,0,0.705,0.196,0.69-0.595c0.015-2.64,0.707-5.598,2.468-7.381c0.97,0.799,2.104,1.433,3.374,1.843   c3.217,1.038,6.574,0.41,9.135-1.412c9.09-5.646,13.032-24.077,13.032-24.077C26.959,4.461,18.046,3.385,18.046,3.385z    M14.316,12.794l-0.001-0.016c0.021,0,0.036-0.004,0.036-0.004C14.34,12.782,14.327,12.789,14.316,12.794z"/></g>
    <text x="0" y="46.644999999999996" fill="#000000" font-size="5px" font-weight="bold"
          font-family="'Helvetica Neue', Helvetica, Arial-Unicode, Arial, Sans-serif">Created by Baboon designs</text>
    <text x="0" y="51.644999999999996" fill="#000000" font-size="5px" font-weight="bold"
          font-family="'Helvetica Neue', Helvetica, Arial-Unicode, Arial, Sans-serif">from the Noun Project</text></svg>